<svg width="157" height="42" viewBox="0 0 157 42" fill="none" xmlns="http://www.w3.org/2000/svg">
<path d="M35.636 23.0673V29.0069C35.636 29.0754 35.6346 29.1439 35.6306 29.2123C35.6293 29.2257 35.6293 29.2405 35.6279 29.2539C35.6252 29.2942 35.6225 29.3345 35.6185 29.3761C35.6145 29.4163 35.6105 29.4566 35.6051 29.4969C35.6011 29.5358 35.5944 29.5747 35.589 29.6123C35.5796 29.67 35.5702 29.7264 35.5581 29.7841C35.5514 29.8204 35.5434 29.8553 35.5353 29.8915C35.5272 29.9224 35.5192 29.9546 35.5111 29.9868C35.5044 30.0163 35.4964 30.0445 35.487 30.0741C35.4507 30.2043 35.4064 30.3331 35.3554 30.4593C35.3447 30.4861 35.334 30.5143 35.3219 30.5412C35.291 30.615 35.2574 30.6875 35.2212 30.7586C35.2038 30.7949 35.185 30.8298 35.1662 30.8647L35.1648 30.8633L28.4454 27.1237L17.9219 21.266L25.836 17.623L35.4937 22.9895L35.636 23.0673Z" fill="url(#paint0_linear_11_8528)"/>
<path d="M35.5213 11.983L33.473 13.5615L31.6596 16.4125L14.418 6.81521L20.9696 2.21387L24.9294 4.50112H24.9307L32.1871 8.69038L33.6891 9.55749C34.6139 10.0917 35.2663 10.9723 35.5213 11.983Z" fill="url(#paint1_linear_11_8528)"/>
<path d="M24.9275 4.50101L0 18.7815V12.9373C0 11.5426 0.743624 10.254 1.95034 9.55738L15.8685 1.52248C17.0752 0.825839 18.5624 0.825839 19.7705 1.52248L24.9275 4.50101Z" fill="#3633D0"/>
<path d="M35.6376 12.9374V14.9656L3.43758 33.2461L1.95034 32.3871C0.743624 31.6891 0 30.4018 0 29.0072V26.983L32.1852 8.69043L33.6872 9.55754C34.894 10.2542 35.6376 11.5428 35.6376 12.9374Z" fill="#3633D0"/>
<path d="M35.6364 22.9062V29.0069C35.6364 29.0754 35.6351 29.1438 35.631 29.2123C35.6297 29.2257 35.6297 29.2405 35.6283 29.2539C35.6257 29.2942 35.623 29.3344 35.619 29.376C35.6149 29.4163 35.6109 29.4566 35.6055 29.4969C35.6015 29.5358 35.5948 29.5747 35.5894 29.6123C35.58 29.67 35.5706 29.7264 35.5586 29.7841C35.5518 29.8203 35.5438 29.8552 35.5357 29.8915C35.5277 29.9224 35.5196 29.9546 35.5116 29.9868C35.5049 30.0163 35.4968 30.0445 35.4874 30.074C35.4512 30.2042 35.4069 30.3331 35.3559 30.4593C35.3451 30.4861 35.3344 30.5143 35.3223 30.5411C35.2914 30.615 35.2579 30.6875 35.2216 30.7586C35.2042 30.7948 35.1854 30.8297 35.1666 30.8646C35.1451 30.9036 35.1237 30.9425 35.1008 30.9801C35.0794 31.019 35.0552 31.0566 35.0324 31.0942C34.9841 31.168 34.9344 31.2418 34.882 31.313C34.8284 31.3854 34.7733 31.4552 34.7169 31.5224C34.6874 31.5573 34.6579 31.5908 34.6283 31.623C34.5988 31.6566 34.5679 31.6888 34.5371 31.721C34.4753 31.7854 34.4109 31.8485 34.3438 31.9076C34.3183 31.9318 34.2914 31.9546 34.2646 31.9774C34.2485 31.9908 34.2324 32.0042 34.2163 32.0177C34.1841 32.0458 34.1505 32.0727 34.1156 32.0982C34.082 32.125 34.0485 32.1505 34.0122 32.1747C33.9451 32.2244 33.8753 32.2714 33.8042 32.3156C33.7653 32.3398 33.7263 32.364 33.6861 32.3868L19.7693 40.4217C18.5612 41.1183 17.074 41.1183 15.8673 40.4217L10.7773 37.4834L28.4458 27.1237L35.4941 22.9895L35.6364 22.9062Z" fill="#3633D0"/>
<path d="M6.99866 6.64355V35.3013L3.43758 33.2462L1.95034 32.3872C0.743624 31.6892 0 30.4019 0 29.0073V12.9375C0 11.5429 0.743624 10.2543 1.95034 9.55765L6.99866 6.64355Z" fill="#3633D0"/>
<path d="M67.04 11.456H72.16V31.712H67.072L61.312 23.136C60.864 22.4533 60.4907 21.8773 60.192 21.408C59.8933 20.9387 59.616 20.4693 59.36 20C59.104 19.5307 58.816 18.976 58.496 18.336L58.4 18.464C58.6987 19.488 58.88 20.448 58.944 21.344C59.008 22.2187 59.04 23.072 59.04 23.904V31.712H53.92V11.456H59.008L64.768 20.032C65.216 20.6933 65.5893 21.2693 65.888 21.76C66.1867 22.2293 66.464 22.6987 66.72 23.168C66.976 23.6373 67.264 24.192 67.584 24.832L67.68 24.704C67.4667 23.808 67.3067 22.944 67.2 22.112C67.0933 21.2587 67.04 20.416 67.04 19.584V11.456ZM81.1338 31.712H76.0138V11.456H91.0538V15.616H81.1338V20.256H90.4138V24.416H81.1338V31.712ZM97.6113 31.712V15.776H91.8513V11.456H108.491V15.776H102.731V31.712H97.6113ZM131.501 11.456H136.717L132.429 31.712H126.189C125.527 29.4293 124.951 27.2 124.461 25.024C123.991 22.848 123.543 20.5227 123.117 18.048H123.053C122.562 20.5227 122.071 22.848 121.581 25.024C121.111 27.2 120.578 29.4293 119.981 31.712H113.741L109.453 11.456H114.669C114.989 12.9493 115.277 14.4107 115.533 15.84C115.789 17.2693 116.034 18.7307 116.269 20.224C116.525 21.696 116.781 23.296 117.036 25.024H117.101C117.421 23.296 117.73 21.696 118.029 20.224C118.327 18.7307 118.637 17.2693 118.957 15.84C119.277 14.4107 119.618 12.9493 119.981 11.456H126.189C126.679 13.7173 127.159 15.9787 127.628 18.24C128.119 20.5013 128.599 22.7627 129.069 25.024H129.133C129.538 22.7627 129.933 20.5013 130.317 18.24C130.701 15.9787 131.095 13.7173 131.501 11.456ZM138.752 26.496C139.69 26.816 140.714 27.072 141.824 27.264C142.954 27.4347 144.074 27.52 145.184 27.52C146.698 27.52 147.818 27.456 148.544 27.328C149.29 27.1787 149.781 26.9547 150.016 26.656C150.25 26.3573 150.368 25.9733 150.368 25.504C150.368 25.0987 150.282 24.7787 150.112 24.544C149.941 24.3093 149.61 24.128 149.12 24C148.629 23.8507 147.904 23.7333 146.944 23.648L144.832 23.456C143.253 23.3067 142.005 22.976 141.088 22.464C140.192 21.952 139.552 21.2693 139.168 20.416C138.805 19.5413 138.624 18.496 138.624 17.28C138.624 15.8293 138.912 14.656 139.488 13.76C140.085 12.864 141.045 12.2133 142.368 11.808C143.69 11.3813 145.45 11.168 147.648 11.168C150.506 11.168 152.864 11.5413 154.72 12.288L154.624 16.64L154.528 16.768C152.416 16.0213 150.208 15.648 147.904 15.648C146.794 15.648 145.941 15.712 145.344 15.84C144.746 15.9467 144.33 16.128 144.096 16.384C143.861 16.64 143.744 17.0027 143.744 17.472C143.744 17.9413 143.818 18.2933 143.968 18.528C144.138 18.7627 144.469 18.944 144.96 19.072C145.45 19.1787 146.165 19.2853 147.104 19.392L149.12 19.616C150.826 19.808 152.138 20.1493 153.056 20.64C153.973 21.1307 154.602 21.792 154.944 22.624C155.306 23.4347 155.488 24.4267 155.488 25.6C155.488 27.0293 155.178 28.224 154.56 29.184C153.962 30.1227 152.981 30.8267 151.616 31.296C150.25 31.7653 148.426 32 146.144 32C144.65 32 143.306 31.9253 142.112 31.776C140.917 31.6053 139.754 31.3813 138.624 31.104V26.592L138.752 26.496Z" fill="white"/>
<defs>
<linearGradient id="paint0_linear_11_8528" x1="34.5621" y1="27.4432" x2="20.2668" y2="17.6445" gradientUnits="userSpaceOnUse">
<stop stop-color="#3633D0"/>
<stop offset="1" stop-color="#3633D0" stop-opacity="0"/>
</linearGradient>
<linearGradient id="paint1_linear_11_8528" x1="32.2166" y1="13.8863" x2="19.2636" y2="5.49708" gradientUnits="userSpaceOnUse">
<stop stop-color="#3633D0"/>
<stop offset="1" stop-color="#3633D0" stop-opacity="0"/>
</linearGradient>
</defs>
</svg>
