<svg width="383" height="65" viewBox="0 0 383 65" fill="none" xmlns="http://www.w3.org/2000/svg">
<path d="M139.178 35.4524L133.963 54.1596H128.536L121.277 26.7677H127.237L131.558 46.6003H131.707L136.837 26.7677H141.69L146.819 46.6003H146.968L151.311 26.7677H157.27L149.991 54.1596H144.563L139.348 35.4524H139.178ZM165.188 50.4649C167.594 50.4649 169.594 48.8935 169.594 46.6852V45.1988L165.295 45.4536C163.23 45.6023 162.038 46.5366 162.038 47.9805C162.038 49.5306 163.294 50.4649 165.188 50.4649ZM163.358 54.4781C159.484 54.4781 156.525 51.9725 156.525 48.3202C156.525 44.6255 159.378 42.4809 164.465 42.1624L169.594 41.8651V40.5273C169.594 38.6375 168.253 37.5333 166.167 37.5333C164.103 37.5333 162.783 38.5526 162.506 40.0602H157.419C157.632 36.1107 160.995 33.3927 166.402 33.3927C171.638 33.3927 175.043 36.0894 175.043 40.1876V54.1808H169.68V51.0594H169.573C168.424 53.2041 165.912 54.4781 163.358 54.4781ZM178.768 26.7677H184.324V54.1596H178.768V26.7677ZM188.198 26.7677H193.753V54.1596H188.198V26.7677ZM206.652 37.4696C204.225 37.4696 202.458 39.317 202.267 41.8438H210.93C210.824 39.2533 209.121 37.4696 206.652 37.4696ZM211.015 47.938H216.123C215.506 51.93 211.866 54.6055 206.822 54.6055C200.543 54.6055 196.775 50.5923 196.775 44.0947C196.775 37.597 200.585 33.3927 206.609 33.3927C212.548 33.3927 216.294 37.4059 216.294 43.585V45.2838H202.246V45.6235C202.246 48.5326 204.097 50.5286 206.928 50.5286C208.929 50.4861 210.483 49.4881 211.015 47.938ZM220.615 29.1247H226.17V33.8174H229.937V38.0005H226.17V47.7257C226.17 49.2758 226.936 50.0189 228.575 50.0189C229.065 50.0189 229.576 49.9765 229.916 49.934V54.0109C229.341 54.1383 228.384 54.2445 227.277 54.2445C222.488 54.2445 220.615 52.652 220.615 48.6812V38.0005H217.741V33.8174H220.615V29.1247ZM245.582 54.6267C237.6 54.6267 232.598 49.297 232.598 40.4424C232.598 31.609 237.643 26.2793 245.582 26.2793C252.18 26.2793 257.204 30.4624 257.651 36.5778H252.053C251.521 33.2228 248.924 31.0145 245.582 31.0145C241.24 31.0145 238.451 34.6455 238.451 40.3999C238.451 46.2393 241.219 49.8491 245.603 49.8491C249.009 49.8491 251.457 47.8531 252.074 44.6043H257.672C257.012 50.7621 252.329 54.6267 245.582 54.6267ZM270.081 54.5843C263.908 54.5843 259.971 50.6347 259.971 43.9672C259.971 37.3847 263.972 33.3715 270.081 33.3715C276.19 33.3715 280.191 37.3635 280.191 43.9672C280.191 50.656 276.254 54.5843 270.081 54.5843ZM270.081 50.3587C272.806 50.3587 274.53 48.0654 274.53 43.9885C274.53 39.954 272.784 37.6183 270.081 37.6183C267.378 37.6183 265.611 39.954 265.611 43.9885C265.611 48.0654 267.357 50.3587 270.081 50.3587ZM283.044 54.1596V33.8174H288.407V37.4484H288.514C289.599 34.9215 291.749 33.4352 294.899 33.4352C299.433 33.4352 301.966 36.2805 301.966 41.037V54.1596H296.411V42.2048C296.411 39.5506 295.155 38.0217 292.664 38.0217C290.174 38.0217 288.599 39.8478 288.599 42.4809V54.1596H283.044ZM305.478 54.1596V33.8174H310.842V37.4484H310.948C312.034 34.9215 314.184 33.4352 317.313 33.4352C321.846 33.4352 324.379 36.2805 324.379 41.037V54.1596H318.824V42.2048C318.824 39.5506 317.568 38.0217 315.078 38.0217C312.587 38.0217 311.012 39.8478 311.012 42.4809V54.1596H305.478ZM337.086 37.4696C334.66 37.4696 332.893 39.317 332.702 41.8438H341.365C341.258 39.2533 339.555 37.4696 337.086 37.4696ZM341.429 47.938H346.537C345.92 51.93 342.28 54.6055 337.235 54.6055C330.956 54.6055 327.189 50.5923 327.189 44.0947C327.189 37.597 330.999 33.3927 337.023 33.3927C342.961 33.3927 346.707 37.4059 346.707 43.585V45.2838H332.659V45.6235C332.659 48.5326 334.511 50.5286 337.342 50.5286C339.364 50.4861 340.918 49.4881 341.429 47.938ZM368.077 41.3767H362.926C362.607 39.2321 361.181 37.7244 358.904 37.7244C356.158 37.7244 354.455 40.039 354.455 43.9672C354.455 47.9805 356.158 50.2525 358.925 50.2525C361.16 50.2525 362.586 48.9148 362.948 46.7064H368.12C367.843 51.5053 364.246 54.6055 358.882 54.6055C352.731 54.6055 348.836 50.6135 348.836 43.9885C348.836 37.4696 352.731 33.3927 358.84 33.3927C364.331 33.3715 367.843 36.7689 368.077 41.3767ZM372.271 29.1247H377.826V33.8174H381.593V38.0005H377.826V47.7257C377.826 49.2758 378.592 50.0189 380.231 50.0189C380.721 50.0189 381.232 49.9765 381.572 49.934V54.0109C380.997 54.1383 380.061 54.2445 378.933 54.2445C374.144 54.2445 372.271 52.652 372.271 48.6812V38.0005H369.397V33.8174H372.271V29.1247Z" fill="white"/>
<path d="M22.759 13.7177C39.2124 -2.35643 65.8825 -2.35643 82.3571 13.7177L84.3367 15.65C85.1668 16.4569 85.1668 17.7522 84.3367 18.5591L77.568 25.1841C77.1636 25.5876 76.4825 25.5876 76.0781 25.1841L73.3536 22.5299C61.8809 11.3183 43.2565 11.3183 31.7839 22.5299L28.8678 25.3752C28.4634 25.7787 27.7823 25.7787 27.3779 25.3752L20.588 18.7502C19.7578 17.9433 19.7578 16.648 20.588 15.8411L22.759 13.7177ZM96.3627 27.3924L102.386 33.2743C103.216 34.0812 103.216 35.3764 102.386 36.1833L75.2054 62.7471C74.3753 63.554 73.0556 63.554 72.2255 62.7471L52.9199 43.8913C52.7071 43.7002 52.3878 43.7002 52.175 43.8913L32.8907 62.7471C32.0606 63.554 30.7409 63.554 29.9108 62.7471L2.70853 36.2046C1.87841 35.3977 1.87841 34.1024 2.70853 33.2955L8.73219 27.4137C9.56231 26.6068 10.882 26.6068 11.7121 27.4137L31.0176 46.2695C31.2305 46.4606 31.5498 46.4606 31.7626 46.2695L51.0469 27.4137C51.877 26.6068 53.1966 26.6068 54.0268 27.4137L73.3323 46.2695C73.5451 46.4606 73.8644 46.4606 74.0773 46.2695L93.3828 27.4137C94.1916 26.5856 95.5326 26.5856 96.3627 27.3924Z" fill="#3A99FB"/>
</svg>
