<svg width="246" height="65" viewBox="0 0 246 65" fill="none" xmlns="http://www.w3.org/2000/svg">
<path fill-rule="evenodd" clip-rule="evenodd" d="M206.737 9.80551V48.8199C206.701 49.4404 206.956 50.0608 207.394 50.5353C207.832 51.0097 208.452 51.2652 209.073 51.2652H209.766C210.423 51.2652 211.044 51.0097 211.482 50.5353C211.919 50.0608 212.175 49.4404 212.175 48.8199V9.80551H216.7V49.8418C216.7 52.871 214.292 55.3163 211.263 55.3893H207.795C206.299 55.3893 204.876 54.8418 203.817 53.7834C202.759 52.725 202.175 51.3382 202.175 49.8418V9.80551H206.737ZM238.927 9.36755C241.956 9.44054 244.401 12.2872 244.401 15.3529V18.9661C244.401 19.477 244.073 19.915 243.562 20.0609L239.803 21.1193V15.9369C239.803 14.623 238.708 13.5281 237.394 13.5281C236.08 13.5281 234.985 14.5865 234.985 15.9369V20.2434C234.985 22.9076 236.956 26.3018 236.956 26.3018L242.357 36.7032C244.547 40.8273 244.365 43.8565 244.365 43.8565V49.6229C244.365 51.1192 243.781 52.5791 242.722 53.6739C241.664 54.7688 240.204 55.3528 238.671 55.3893H235.824C232.759 55.2068 230.35 52.6885 230.35 49.6229V43.163C230.35 42.6521 230.679 42.2141 231.189 42.0681L234.949 41.0098V48.8929C234.949 50.2068 236.043 51.2652 237.394 51.2652C238.708 51.2652 239.803 50.1703 239.766 48.8199V43.674C239.766 41.0463 237.795 37.5426 237.795 37.5426L232.467 27.1412C230.277 23.0171 230.46 19.9879 230.46 19.9879V15.3529C230.46 12.2143 232.978 9.36755 236.153 9.36755H238.927ZM153.489 9.36755C156.555 9.51354 158.963 12.0683 158.963 15.134V49.7688C158.927 52.798 156.518 55.2798 153.489 55.4258H150.022C146.92 55.3893 144.401 52.871 144.365 49.7688V15.0975C144.365 13.6011 144.949 12.1413 146.007 11.0464C147.066 9.95149 148.526 9.36755 150.058 9.33105L153.489 9.36755ZM101.482 9.80551L100.387 13.6011C100.241 14.1121 99.8031 14.4405 99.2922 14.4405H92.0294V28.966H99.5477L98.4528 32.7616C98.3068 33.2361 97.8688 33.601 97.3579 33.601H92.0294V50.3528H101.482L100.424 54.1119C100.278 54.6228 99.8396 54.9513 99.3287 54.9513H87.5039V9.80551H101.482ZM182.175 9.80551C185.314 9.842 187.795 12.3602 187.795 15.4624V49.2579C187.795 52.3601 185.277 54.9148 182.175 54.9148H173.416V9.80551H182.175ZM122.54 24.331L126.701 9.80551H131.336L124.876 32.3967L131.372 54.9878H126.737L122.54 40.4258L118.38 54.9513H113.745L120.205 32.3967L113.708 9.80551H118.343L122.54 24.331ZM151.956 51.3382C152.613 51.3382 153.234 51.0462 153.672 50.5718C154.109 50.0973 154.365 49.4769 154.328 48.8199V15.9369C154.365 15.2799 154.109 14.6595 153.672 14.1851C153.234 13.7106 152.613 13.4551 151.956 13.4186H151.263C149.912 13.4916 148.854 14.5865 148.854 15.9369V48.8199C148.854 50.1703 149.912 51.2652 151.263 51.3382H151.956ZM180.898 50.3893C182.175 50.3893 183.306 49.7323 183.306 47.9805V16.7763C183.306 15.0975 182.175 14.4405 180.898 14.4405H177.942V50.3893H180.898Z" fill="white"/>
<path d="M45.2402 32.506L64.2182 51.484H57.5029C56.3716 51.484 55.2402 51.0095 54.4373 50.2066L36.8096 32.506L54.5102 14.7688C55.3132 13.9659 56.4081 13.4914 57.5759 13.5279H64.2182L45.2402 32.506ZM10.4593 14.7688C9.65641 13.9659 8.56153 13.4914 7.39365 13.5279H0.714844L19.6929 32.506L0.714844 51.484H7.43015C8.56153 51.484 9.69291 51.0095 10.4958 50.2066L28.16 32.4695L10.4593 14.7688ZM32.4665 36.849L14.7294 54.5497C13.9265 55.3526 13.4885 56.4475 13.4885 57.6154V64.2942L32.4665 45.3161L51.4446 64.2942V57.5789C51.4446 56.4475 51.0066 55.3161 50.2037 54.5132L32.4665 36.849ZM32.4665 28.1629L50.2037 10.4623C51.0066 9.65934 51.4446 8.56446 51.4446 7.39658V0.717773L32.4665 19.6958L13.4885 0.717773V7.39658C13.4885 8.52796 13.9265 9.65934 14.7294 10.4623L32.4665 28.1629Z" fill="url(#paint0_linear_13_4017)"/>
<defs>
<linearGradient id="paint0_linear_13_4017" x1="0.693669" y1="32.4991" x2="40.8463" y2="32.4991" gradientUnits="userSpaceOnUse">
<stop stop-color="#00BFFF"/>
<stop offset="1" stop-color="#6619FF"/>
</linearGradient>
</defs>
</svg>
