<svg width="347" height="65" viewBox="0 0 347 65" fill="none" xmlns="http://www.w3.org/2000/svg">
<g clip-path="url(#clip0_13_4033)">
<path d="M300.756 17.0117C302.847 17.0117 304.803 17.6976 306.523 18.9903C308.321 20.3357 309.3 22.4461 309.512 24.9788C309.532 25.0579 309.492 25.1222 309.427 25.1494L309.353 25.1634H305.279C305.22 25.1634 305.16 25.1337 305.134 25.0855L305.121 25.0315C304.644 21.3644 300.175 20.3622 297.478 22.156C295.599 23.4223 295.228 26.3241 297.028 27.8014C297.732 28.3817 298.544 28.8449 299.367 29.2925L301.545 30.4773L303.458 31.4585C304.413 31.9498 305.359 32.4576 306.259 33.0512C309.353 35.1089 310.384 38.2218 309.828 41.6777C309.195 45.2127 306.074 48.6159 300.043 48.6159C297.741 48.6159 295.519 47.9827 293.483 46.4527C291.315 44.8433 290.521 43.076 290.521 39.8839C290.521 39.8245 290.566 39.7651 290.622 39.7391L290.68 39.7255H295.096C295.175 39.7255 295.255 39.8047 295.255 39.8839C295.255 40.174 295.308 40.8336 295.413 41.1765C296.022 43.076 297.767 44.2894 300.017 44.4213C302.079 44.5532 304.141 43.4188 304.935 41.7832C305.809 39.9893 305.174 37.7205 303.164 36.4806L302.906 36.3244L301.952 35.7785L300.801 35.1493L295.245 32.2195L294.908 32.0317L294.805 31.9697C289.013 28.3818 289.992 17.0117 300.756 17.0117ZM327.153 17.6186C327.213 17.6186 327.272 17.6631 327.298 17.7188L327.312 17.7769V29.6481C327.312 29.7537 327.414 29.8255 327.509 29.796L327.577 29.7538L339.24 17.6714C339.258 17.6538 339.276 17.6362 339.301 17.6264L339.346 17.6186H344.98C345.086 17.6186 345.158 17.7199 345.128 17.8145L345.086 17.8824L331.331 32.1281C331.296 32.1632 331.284 32.2218 331.296 32.2726L331.331 32.339L346.619 48.0884C346.703 48.1517 346.669 48.2826 346.598 48.3459L346.539 48.3787H340.906L340.853 48.3621L340.8 48.3258L327.577 34.7133C327.513 34.6289 327.382 34.6627 327.332 34.7472L327.312 34.8189V48.2203C327.312 48.2797 327.267 48.3391 327.212 48.3651L327.153 48.3787H322.735C322.676 48.3787 322.616 48.3341 322.59 48.2785L322.577 48.2203V17.7769C322.577 17.7175 322.621 17.6582 322.677 17.6322L322.735 17.6186H327.153ZM102.497 17.5923C102.55 17.5923 102.591 17.604 102.62 17.6353L102.656 17.6978L106.279 29.6219C106.322 29.7486 106.465 29.7739 106.548 29.6979L106.597 29.6219L110.22 17.6978C110.238 17.6626 110.267 17.6274 110.308 17.6079L110.379 17.5923H117.07C117.13 17.5923 117.189 17.6368 117.215 17.6924L117.229 17.7505V48.194C117.229 48.2533 117.184 48.3126 117.129 48.3386L117.07 48.3522H112.653C112.594 48.3522 112.534 48.3077 112.508 48.2521L112.495 48.194V25.058C112.495 24.9041 112.311 24.8418 112.219 24.9322L112.177 25.0053L108.527 37.0086L108.263 37.8526C108.245 37.8878 108.216 37.923 108.175 37.9426L108.104 37.9583H104.719C104.666 37.9583 104.625 37.9465 104.595 37.9152L104.56 37.8526L104.295 37.0086L100.646 25.0053C100.602 24.8734 100.411 24.8697 100.348 24.979L100.328 25.058V48.194C100.328 48.2533 100.284 48.3126 100.228 48.3386L100.169 48.3522H95.7526C95.693 48.3522 95.6335 48.3077 95.6074 48.2521L95.5938 48.194V17.7505C95.5938 17.6912 95.6384 17.6318 95.6942 17.6059L95.7526 17.5923H102.497ZM230.747 17.5923C230.8 17.5923 230.841 17.604 230.87 17.6353L230.906 17.6978L234.53 29.6219C234.572 29.7486 234.716 29.7739 234.799 29.6979L234.847 29.6219L238.469 17.6978C238.487 17.6626 238.516 17.6274 238.557 17.6079L238.628 17.5923H245.346C245.406 17.5923 245.466 17.6368 245.492 17.6924L245.505 17.7505V48.194C245.505 48.2533 245.461 48.3126 245.405 48.3386L245.346 48.3522H240.931C240.871 48.3522 240.811 48.3077 240.785 48.2521L240.772 48.194V25.058C240.772 24.9041 240.588 24.8418 240.496 24.9322L240.454 25.0053L236.804 37.0086L236.539 37.8526C236.521 37.8878 236.492 37.923 236.451 37.9426L236.38 37.9583H232.995C232.942 37.9583 232.901 37.9465 232.871 37.9152L232.836 37.8526L232.571 37.0086L228.923 25.0053C228.879 24.8734 228.688 24.8697 228.625 24.979L228.605 25.058V48.194C228.605 48.2533 228.561 48.3126 228.505 48.3386L228.446 48.3522H224.029C223.969 48.3522 223.909 48.3077 223.883 48.2521L223.87 48.194V17.7505C223.87 17.6912 223.914 17.6318 223.97 17.6059L224.029 17.5923H230.747ZM181.658 17.5923C181.737 17.5923 181.787 17.6368 181.807 17.6924L181.816 17.7505V21.5493C181.816 21.6087 181.772 21.6681 181.716 21.6941L181.658 21.7077H173.591V48.194C173.591 48.2533 173.546 48.3126 173.49 48.3386L173.432 48.3522H169.015C168.956 48.3522 168.896 48.3077 168.87 48.2521L168.857 48.194V21.7077H160.79C160.73 21.7077 160.671 21.6632 160.645 21.6075L160.631 21.5493V17.7505C160.631 17.6912 160.676 17.6318 160.731 17.6059L160.79 17.5923H181.658ZM203.425 17.4864C203.478 17.4864 203.519 17.4981 203.549 17.5294L203.584 17.5919L211.888 48.1409C211.908 48.22 211.869 48.2991 211.803 48.3337L211.73 48.3518H207.711C207.675 48.3518 207.628 48.3284 207.593 48.2971L207.552 48.2464L205.145 39.356C205.128 39.3208 205.098 39.2856 205.057 39.2661L204.987 39.2505H196.099C196.046 39.2505 196.005 39.2623 195.976 39.2935L195.941 39.356L193.534 48.2464C193.516 48.2815 193.487 48.3167 193.445 48.3362L193.375 48.3518H189.355C189.275 48.3518 189.211 48.2925 189.195 48.2183L189.196 48.1409L197.501 17.5919C197.518 17.5567 197.548 17.5216 197.589 17.502L197.66 17.4864H203.425ZM271.98 17.4864C272.033 17.4864 272.074 17.4981 272.104 17.5294L272.139 17.5919L280.443 48.1409C280.463 48.22 280.424 48.2991 280.358 48.3337L280.285 48.3518H276.266C276.213 48.3518 276.172 48.3284 276.142 48.2971L276.107 48.2464L273.701 39.356C273.683 39.3208 273.653 39.2856 273.612 39.2661L273.542 39.2505H264.655C264.602 39.2505 264.561 39.2623 264.532 39.2935L264.496 39.356L262.09 48.2464C262.072 48.2815 262.043 48.3167 262.002 48.3362L261.931 48.3518H257.91C257.831 48.3518 257.766 48.2925 257.75 48.2183L257.751 48.1409L266.056 17.5919C266.073 17.5567 266.103 17.5216 266.144 17.502L266.215 17.4864H271.98ZM148.703 17.6186C148.763 17.6186 148.822 17.6631 148.848 17.7188L148.862 17.7769V21.5758C148.862 21.635 148.817 21.6944 148.761 21.7204L148.703 21.734H135.32C135.26 21.734 135.201 21.7785 135.175 21.8342L135.161 21.8924V29.9647C135.161 30.0241 135.206 30.0835 135.262 30.1095L135.32 30.1231H147.09C147.149 30.1231 147.209 30.1677 147.235 30.2233L147.248 30.2813V34.0801C147.248 34.1395 147.204 34.1989 147.148 34.2249L147.09 34.2385H135.32C135.26 34.2385 135.201 34.283 135.175 34.3386L135.161 34.3967V43.8411C135.161 43.9114 135.185 43.9583 135.224 43.9896L135.294 44.0257H149.258C149.318 44.0257 149.378 44.0703 149.404 44.1259L149.417 44.1841V48.1938C149.417 48.2532 149.373 48.3126 149.317 48.3386L149.258 48.3522H130.586C130.526 48.3522 130.467 48.3077 130.441 48.252L130.427 48.1938V17.7769C130.427 17.7175 130.472 17.6582 130.527 17.6322L130.586 17.6186H148.703ZM200.701 22.9999C200.659 22.8733 200.515 22.848 200.432 22.924L200.384 22.9999L197.157 34.8977C197.137 34.9768 197.177 35.0559 197.243 35.0905L197.316 35.1086H203.769C203.849 35.1086 203.913 35.0493 203.929 34.9752L203.928 34.8977L200.701 22.9999ZM269.256 22.9999C269.214 22.8733 269.07 22.848 268.987 22.924L268.939 22.9999L265.712 34.8977C265.692 34.9768 265.732 35.0559 265.797 35.0905L265.87 35.1086H272.324C272.404 35.1086 272.468 35.0493 272.484 34.9752L272.483 34.8977L269.256 22.9999Z" fill="white"/>
<path d="M67.5461 0L37.875 21.9545L43.3926 9.01601L67.5461 0Z" fill="#E17726"/>
<path d="M1.67188 0.0253906L25.7607 9.01718L30.9999 22.1254L1.67188 0.0253906Z" fill="#E27625"/>
<path d="M55.604 46.6914L68.7181 46.941L64.1349 62.5108L48.1328 58.1049L55.604 46.6914Z" fill="#E27625"/>
<path d="M13.5441 46.6914L20.9877 58.105L5.01236 62.5112L0.457031 46.941L13.5441 46.6914Z" fill="#E27625"/>
<path d="M30.2898 18.7871L30.8259 36.0968L14.7891 35.3672L19.3506 28.4854L19.4083 28.419L30.2898 18.7871Z" fill="#E27625"/>
<path d="M38.6949 18.5938L49.7424 28.4195L49.7996 28.4853L54.3612 35.3671L38.3281 36.0966L38.6949 18.5938Z" fill="#E27625"/>
<path d="M21.4544 46.7412L30.2109 53.5639L20.0391 58.475L21.4544 46.7412Z" fill="#E27625"/>
<path d="M47.6949 46.7402L49.0808 58.4751L38.9375 53.5636L47.6949 46.7402Z" fill="#E27625"/>
<path d="M39.1602 52.9209L49.4533 57.905L39.8786 62.4555L39.978 59.4479L39.1602 52.9209Z" fill="#D5BFB2"/>
<path d="M29.9865 52.9229L29.2006 59.3984L29.2651 62.4517L19.668 57.9047L29.9865 52.9229Z" fill="#D5BFB2"/>
<path d="M27.0149 38.3555L29.7046 44.0084L20.5469 41.3257L27.0149 38.3555Z" fill="#233447"/>
<path d="M42.1344 38.3564L48.6328 41.326L39.4453 44.0079L42.1344 38.3564Z" fill="#233447"/>
<path d="M22.1565 46.6836L20.6762 58.8493L12.7422 46.9495L22.1565 46.6836Z" fill="#CC6228"/>
<path d="M46.9922 46.6836L56.4068 46.9495L48.4429 58.8497L46.9922 46.6836Z" fill="#CC6228"/>
<path d="M54.5946 34.6787L47.7431 41.6614L42.4606 39.2474L39.9314 44.5643L38.2734 35.4213L54.5946 34.6787Z" fill="#CC6228"/>
<path d="M14.5508 34.6787L30.8748 35.4214L29.2168 44.5644L26.6871 39.2482L21.4325 41.6616L14.5508 34.6787Z" fill="#CC6228"/>
<path d="M14.0898 33.2461L21.8416 41.112L22.1102 48.8774L14.0898 33.2461Z" fill="#E27525"/>
<path d="M55.066 33.2314L47.0312 48.8907L47.3338 41.1114L55.066 33.2314Z" fill="#E27525"/>
<path d="M30.4989 33.7246L30.8109 35.6883L31.5818 40.5803L31.0862 55.6054L28.743 43.5356L28.7422 43.4108L30.4989 33.7246Z" fill="#E27525"/>
<path d="M38.6456 33.6982L40.4071 43.4115L40.4063 43.5363L38.0572 55.6363L37.9642 52.6098L37.5977 40.492L38.6456 33.6982Z" fill="#E27525"/>
<path d="M48.0225 40.7998L47.7601 47.5466L39.5828 53.9179L37.9297 52.7499L39.7827 43.2053L48.0225 40.7998Z" fill="#F5841F"/>
<path d="M21.1562 40.7998L29.3676 43.2054L31.2206 52.7497L29.5675 53.9177L21.3896 47.546L21.1562 40.7998Z" fill="#F5841F"/>
<path d="M18.1016 56.415L28.5636 61.3721L28.5193 59.2553L29.3946 58.487H39.749L40.6561 59.2528L40.5893 61.368L50.9849 56.4276L45.9264 60.6077L39.8095 64.809H29.3108L23.1979 60.5905L18.1016 56.415Z" fill="#C0AC9D"/>
<path d="M38.4094 52.2607L39.8886 53.3056L40.7555 60.2218L39.501 59.1625H29.6486L28.418 60.2431L29.2563 53.3062L30.7361 52.2607H38.4094Z" fill="#161616"/>
<path d="M65.5862 0.607422L69.1478 11.2924L66.9235 22.0959L68.5074 23.3178L66.3642 24.953L67.9749 26.197L65.842 28.1395L67.1514 29.0878L63.6763 33.1465L49.4224 28.9964L49.2989 28.9301L39.0273 20.2654L65.5862 0.607422Z" fill="#763E1A"/>
<path d="M3.5617 0.607422L30.1206 20.2654L19.849 28.9301L19.7255 28.9964L5.47159 33.1465L1.99646 29.0878L3.30489 28.1402L1.17296 26.197L2.78068 24.9544L0.605412 23.3145L2.24903 22.0918L0 11.2928L3.5617 0.607422Z" fill="#763E1A"/>
<path d="M48.7257 28.0889L63.8286 32.486L68.7352 47.6083L55.7904 47.6083L46.8711 47.7209L53.3576 35.0775L48.7257 28.0889Z" fill="#F5841F"/>
<path d="M20.4236 28.0889L15.7909 35.0775L22.2783 47.7209L13.3633 47.6083H0.441406L5.32054 32.4861L20.4236 28.0889Z" fill="#F5841F"/>
<path d="M44.1311 8.94434L39.9068 20.3535L39.0103 35.7664L38.6673 40.5972L38.6401 52.938H30.5067L30.4803 40.6204L30.1361 35.7621L29.2393 20.3535L25.0156 8.94434H44.1311Z" fill="#F5841F"/>
</g>
<defs>
<clipPath id="clip0_13_4033">
<rect width="346.667" height="65" fill="white"/>
</clipPath>
</defs>
</svg>
