<svg width="293" height="65" viewBox="0 0 293 65" fill="none" xmlns="http://www.w3.org/2000/svg">
<g clip-path="url(#clip0_13_4021)">
<path d="M106.074 54.7688C100.889 54.7688 95.1726 53.0144 88.9259 49.5061V41.9181C94.8053 45.8753 100.542 47.8537 106.135 47.8537C108.707 47.8537 110.749 47.3845 112.259 46.4464C113.811 45.4673 114.587 44.121 114.587 42.4076C114.587 40.8574 113.872 39.6332 112.443 38.7358C111.014 37.7977 108.809 36.9611 105.829 36.2268C100.48 34.8398 96.8466 33.6568 94.9276 32.6776C90.6816 30.5155 88.5586 27.2722 88.5586 22.9478C88.5586 19.2354 90.1303 16.298 93.2743 14.1358C96.418 11.9737 100.297 10.8926 104.91 10.8926C110.545 10.8926 115.628 12.5244 120.16 15.7881V23.3762C114.975 19.6229 109.891 17.7463 104.91 17.7463C102.297 17.7463 100.133 18.2359 98.4187 19.2149C96.7036 20.1941 95.8463 21.5607 95.8463 23.315C95.8463 24.3756 96.3363 25.2936 97.3163 26.0687C98.296 26.803 99.3577 27.3742 100.501 27.7821C101.685 28.1493 103.441 28.6185 105.768 29.1896C108.217 29.8015 110.238 30.3931 111.831 30.9642C113.464 31.5354 115.117 32.3309 116.791 33.3508C118.465 34.33 119.711 35.5741 120.527 37.0837C121.385 38.5932 121.813 40.3882 121.813 42.4689C121.813 46.3445 120.323 49.3633 117.343 51.5255C114.403 53.6875 110.647 54.7688 106.074 54.7688Z" fill="#F7F6FF"/>
<path d="M136.557 54.7681C135.128 54.7681 133.74 54.6049 132.392 54.2786C131.086 53.9522 129.82 53.4421 128.595 52.7487C127.37 52.0144 126.37 50.9741 125.594 49.6277C124.818 48.2407 124.431 46.6292 124.431 44.7933C124.39 41.4888 125.533 38.9799 127.86 37.2665C130.187 35.5122 133.515 34.6354 137.843 34.6354H147.703V32.677C147.703 30.882 146.968 29.5357 145.498 28.6382C144.029 27.6999 142.13 27.2307 139.803 27.2307C135.352 27.2307 132.76 28.6994 132.025 31.6367L125.288 31.7591C125.37 28.5362 126.778 25.9865 129.514 24.1098C132.29 22.2332 135.679 21.2949 139.68 21.2949C143.722 21.2949 147.172 22.274 150.03 24.2322C152.929 26.1904 154.379 28.7198 154.379 31.8203V54.2786H147.703V49.3829C146.764 50.6884 145.335 51.9122 143.416 53.0548C141.538 54.197 139.252 54.7681 136.557 54.7681ZM137.108 48.9547C139.803 48.9547 142.232 48.0366 144.396 46.201C146.601 44.3651 147.703 42.2028 147.703 39.7142H139.068C136.414 39.7142 134.434 40.2244 133.127 41.2441C131.861 42.2231 131.31 43.4676 131.474 44.9772C131.596 46.3642 132.208 47.3839 133.311 48.0366C134.413 48.6486 135.679 48.9547 137.108 48.9547Z" fill="#F7F6FF"/>
<path d="M159.767 54.279L159.645 27.9043V20.7446C159.645 16.869 161.237 13.9521 164.421 11.9938C167.606 10.0356 171.811 9.70926 177.037 11.0147L176.976 16.3998C173.587 15.5023 171.015 15.5023 169.26 16.3998C167.545 17.2565 166.687 18.7252 166.687 20.8058V21.8461H176.731V27.9043H166.687L166.749 54.279H159.767Z" fill="#F7F6FF"/>
<path d="M195.248 54.7681C190.594 54.7681 186.654 53.1364 183.428 49.8725C180.203 46.568 178.59 42.6108 178.59 38.0008C178.59 33.3502 180.223 29.4133 183.489 26.1904C186.756 22.9268 190.675 21.2949 195.248 21.2949C199.29 21.2949 202.842 22.6208 205.904 25.2725C209.007 27.8835 210.906 31.1676 211.6 35.1249C212.008 37.0421 212.029 38.878 211.661 40.6323H185.572C185.98 43.0394 187.082 44.9565 188.879 46.3845C190.675 47.7715 192.798 48.4652 195.248 48.4652C199.004 48.4652 202.005 47.1391 204.251 44.4876H210.569C210.569 44.4876 209.839 48.7749 204.251 52.4427C201.393 53.9929 198.392 54.7681 195.248 54.7681ZM185.572 35.1859H204.741C204.332 33.0238 203.25 31.2084 201.495 29.7397C199.78 28.271 197.677 27.5367 195.187 27.5367C192.696 27.5367 190.573 28.2914 188.818 29.8009C187.062 31.2695 185.98 33.0646 185.572 35.1859Z" fill="#F7F6FF"/>
<path d="M262.803 54.7681C261.374 54.7681 259.986 54.6049 258.639 54.2786C257.332 53.9522 256.066 53.4421 254.841 52.7487C253.617 52.0144 252.616 50.9741 251.841 49.6277C251.065 48.2407 250.677 46.6292 250.677 44.7933C250.636 41.4888 251.779 38.9799 254.107 37.2665C256.434 35.5122 259.761 34.6354 264.089 34.6354H273.949V32.677C273.949 30.882 273.214 29.5357 271.744 28.6382C270.275 27.6999 268.376 27.2307 266.049 27.2307C261.599 27.2307 259.006 28.6994 258.271 31.6367L251.534 31.7591C251.616 28.5362 253.025 25.9865 255.76 24.1098C258.536 22.2332 261.925 21.2949 265.926 21.2949C269.968 21.2949 273.418 22.274 276.276 24.2322C279.175 26.1904 280.625 28.7198 280.625 31.8203V54.2786H273.949V49.3829C273.01 50.6884 271.581 51.9122 269.662 53.0548C267.784 54.197 265.498 54.7681 262.803 54.7681ZM263.354 48.9547C266.049 48.9547 268.478 48.0366 270.642 46.201C272.847 44.3651 273.949 42.2028 273.949 39.7142H265.314C262.66 39.7142 260.68 40.2244 259.373 41.2441C258.108 42.2231 257.557 43.4676 257.72 44.9772C257.842 46.3642 258.455 47.3839 259.557 48.0366C260.66 48.6486 261.925 48.9547 263.354 48.9547Z" fill="#F7F6FF"/>
<path d="M285.738 54.2793V11.9941H292.781V54.2793H285.738Z" fill="#F7F6FF"/>
<path fill-rule="evenodd" clip-rule="evenodd" d="M215.754 11.9941H234.372C238.495 11.9941 241.925 13.4016 244.661 16.2165C247.396 18.9906 248.764 22.3563 248.764 26.3135C248.764 30.3115 247.396 33.6772 244.661 36.4104C241.966 39.1032 238.536 40.4699 234.372 40.5105L223.042 40.5718V54.2793H215.754V11.9941ZM233.882 33.9628L223.042 34.024V18.6031L233.882 18.5419C236.291 18.5419 238.189 19.2558 239.577 20.6837C241.006 22.1116 241.721 23.9066 241.721 26.0688C241.721 28.2718 241.006 30.1484 239.577 31.6986C238.148 33.2081 236.25 33.9628 233.882 33.9628Z" fill="#F7F6FF"/>
<path d="M28.5233 0C26.5431 -1.83103e-07 24.6441 0.785877 23.2439 2.18474L1.24956 24.1582C0.41651 24.9905 -6.82024e-06 26.0813 0 27.1721C6.82041e-06 28.2629 0.416537 29.3537 1.24959 30.186L15.6631 44.5856V19.093C15.6631 17.1905 17.1948 15.6483 19.0991 15.6483C27.1444 15.6483 46.728 15.6483 49.3989 15.6483L65.0621 0.000221768L28.5233 0Z" fill="#F7F6FF"/>
<path d="M15.6631 49.3513H45.9509C47.8554 49.3513 49.3989 47.8093 49.3989 45.9067V20.4141L63.8127 34.8137C64.6456 35.6462 65.0621 36.7369 65.0621 37.8277C65.0621 38.9185 64.6456 40.0093 63.8127 40.8414L41.8184 62.8152C40.4182 64.214 38.5192 64.9998 36.5389 64.9998L0 64.9994L15.6631 49.3513Z" fill="#F7F6FF"/>
</g>
<defs>
<clipPath id="clip0_13_4021">
<rect width="292.783" height="65" fill="white"/>
</clipPath>
</defs>
</svg>
