<svg width="249" height="65" viewBox="0 0 249 65" fill="none" xmlns="http://www.w3.org/2000/svg">
<g clip-path="url(#clip0_13_3598)">
<path d="M83.5087 26.207H76.7539V22.2259H95.1481V26.207H88.3933V43.3352H83.5087V26.207ZM99.7758 29.2526C100.338 28.4684 101.093 27.8752 102.037 27.4729C103.002 27.0714 104.108 26.8699 105.354 26.8699V31.2128C104.832 31.1724 104.48 31.1522 104.299 31.1522C102.952 31.1522 101.896 31.5342 101.132 32.2982C100.368 33.042 99.9864 34.1678 99.9864 35.6756V43.3352H95.2824V27.1111H99.7758V29.2526ZM122.804 27.1111V43.3352H118.341V41.405C117.718 42.1084 116.974 42.6514 116.109 43.0334C115.245 43.3952 114.31 43.5764 113.305 43.5764C111.174 43.5764 109.486 42.963 108.239 41.7368C106.993 40.5106 106.37 38.6912 106.37 36.2786V27.1111H111.074V35.585C111.074 38.1984 112.169 39.5054 114.36 39.5054C115.486 39.5054 116.391 39.1436 117.075 38.4194C117.758 37.6756 118.1 36.5804 118.1 35.1326V27.1111H122.804ZM130.811 43.5764C129.464 43.5764 128.147 43.4154 126.861 43.094C125.574 42.7518 124.549 42.33 123.785 41.8274L125.353 38.45C126.077 38.9122 126.951 39.2942 127.976 39.5954C129.002 39.877 130.007 40.0178 130.992 40.0178C132.982 40.0178 133.978 39.5256 133.978 38.54C133.978 38.0778 133.706 37.746 133.163 37.5452C132.62 37.3444 131.786 37.173 130.66 37.0322C129.334 36.8314 128.238 36.6 127.373 36.3392C126.509 36.0778 125.755 35.615 125.112 34.952C124.489 34.2884 124.177 33.3438 124.177 32.117C124.177 31.0922 124.469 30.1874 125.051 29.4032C125.654 28.5987 126.519 27.9755 127.645 27.5336C128.791 27.0916 130.137 26.8699 131.686 26.8699C132.832 26.8699 133.967 27.001 135.093 27.2624C136.239 27.5036 137.184 27.8452 137.928 28.2871L136.36 31.6346C134.933 30.8308 133.375 30.4286 131.686 30.4286C130.68 30.4286 129.927 30.5694 129.424 30.8503C128.922 31.132 128.67 31.4938 128.67 31.9364C128.67 32.439 128.942 32.7904 129.484 32.9918C130.027 33.1926 130.892 33.3836 132.077 33.5648C133.405 33.7858 134.49 34.027 135.334 34.2884C136.179 34.5296 136.912 34.982 137.536 35.6456C138.159 36.3086 138.47 37.2336 138.47 38.4194C138.47 39.4246 138.169 40.3196 137.566 41.1032C136.963 41.8874 136.078 42.5008 134.912 42.9428C133.766 43.3652 132.399 43.5764 130.811 43.5764ZM150.028 42.551C149.565 42.8926 148.992 43.154 148.309 43.3352C147.646 43.4956 146.942 43.5764 146.198 43.5764C144.268 43.5764 142.77 43.0836 141.705 42.0986C140.659 41.1136 140.137 39.6658 140.137 37.7564V31.0922H137.634V27.4729H140.137V23.5232H144.841V27.4729H148.882V31.0922H144.841V37.6958C144.841 38.3796 145.012 38.9122 145.354 39.2942C145.715 39.656 146.218 39.8372 146.861 39.8372C147.605 39.8372 148.238 39.6358 148.761 39.2336L150.028 42.551ZM189.826 22.2259L182.92 43.3352H177.673L173.029 29.0414L168.235 43.3352H163.018L156.082 22.2259H161.148L165.913 37.0628L170.889 22.2259H175.411L180.237 37.1834L185.152 22.2259H189.826ZM195.748 26.8699C198.261 26.8699 200.191 27.4729 201.538 28.6796C202.885 29.8654 203.558 31.6646 203.558 34.0772V43.3352H199.156V41.3144C198.272 42.8222 196.623 43.5764 194.21 43.5764C192.964 43.5764 191.879 43.3652 190.954 42.9428C190.049 42.521 189.355 41.9376 188.873 41.1938C188.39 40.45 188.149 39.6058 188.149 38.6606C188.149 37.1534 188.712 35.967 189.838 35.1026C190.984 34.2382 192.743 33.806 195.115 33.806H198.854C198.854 32.7806 198.543 31.9964 197.92 31.454C197.296 30.8908 196.362 30.6091 195.115 30.6091C194.251 30.6091 193.396 30.75 192.552 31.0316C191.727 31.293 191.024 31.6548 190.441 32.117L188.752 28.8302C189.637 28.207 190.692 27.7246 191.918 27.383C193.165 27.0407 194.442 26.8699 195.748 26.8699ZM195.386 40.4096C196.191 40.4096 196.905 40.229 197.528 39.8672C198.151 39.4852 198.593 38.9324 198.854 38.2088V36.5498H195.628C193.698 36.5498 192.733 37.1834 192.733 38.45C192.733 39.053 192.964 39.5354 193.426 39.8972C193.909 40.2388 194.562 40.4096 195.386 40.4096ZM206.007 20.96H210.711V43.3352H206.007V20.96ZM213.268 20.96H217.972V43.3352H213.268V20.96ZM236.421 35.2832C236.421 35.3438 236.391 35.7662 236.33 36.5498H224.057C224.278 37.555 224.801 38.349 225.625 38.9324C226.449 39.5152 227.474 39.8066 228.701 39.8066C229.545 39.8066 230.289 39.686 230.932 39.4448C231.595 39.1834 232.209 38.7818 232.771 38.2388L235.275 40.9526C233.746 42.7016 231.515 43.5764 228.58 43.5764C226.75 43.5764 225.132 43.2244 223.725 42.521C222.318 41.7968 221.232 40.802 220.468 39.5354C219.704 38.2688 219.322 36.8314 219.322 35.2232C219.322 33.6352 219.694 32.2076 220.438 30.941C221.202 29.6548 222.237 28.6594 223.544 27.956C224.871 27.2317 226.348 26.8699 227.977 26.8699C229.565 26.8699 231.003 27.2122 232.289 27.8954C233.576 28.5792 234.581 29.5642 235.304 30.8503C236.048 32.117 236.421 33.5948 236.421 35.2832ZM228.007 30.4286C226.941 30.4286 226.047 30.7297 225.324 31.3334C224.599 31.9364 224.157 32.7604 223.996 33.806H231.988C231.827 32.7806 231.385 31.9664 230.66 31.3634C229.937 30.7402 229.052 30.4286 228.007 30.4286ZM248.207 42.551C247.744 42.8926 247.171 43.154 246.488 43.3352C245.825 43.4956 245.121 43.5764 244.377 43.5764C242.447 43.5764 240.95 43.0836 239.884 42.0986C238.838 41.1136 238.316 39.6658 238.316 37.7564V31.0922H235.813V27.4729H238.316V23.5232H243.02V27.4729H247.061V31.0922H243.02V37.6958C243.02 38.3796 243.191 38.9122 243.533 39.2942C243.894 39.656 244.397 39.8372 245.04 39.8372C245.784 39.8372 246.418 39.6358 246.941 39.2336L248.207 42.551Z" fill="white"/>
<path d="M42.3659 1.53516H21.9271C10.3888 1.53516 1.03516 10.8888 1.03516 22.4271V42.8659C1.03516 54.4042 10.3888 63.7578 21.9271 63.7578H42.3659C53.9042 63.7578 63.2578 54.4042 63.2578 42.8659V22.4271C63.2578 10.8888 53.9042 1.53516 42.3659 1.53516Z" fill="white" stroke="#DFE5EC"/>
<path d="M3.41016 33.0957C3.41016 17.1278 16.3546 4.18359 32.3221 4.18359C48.29 4.18359 61.2345 17.1278 61.2345 33.0957C61.2345 49.0636 48.29 62.0081 32.3221 62.0081C16.3546 62.0081 3.41016 49.0636 3.41016 33.0957Z" fill="white"/>
<path d="M32.3382 15.8164C38.1726 20.6892 44.8635 20.3887 46.7748 20.3887C46.357 48.1003 43.1706 42.6049 32.3382 50.3754C21.5061 42.6049 18.34 48.1003 17.9219 20.3887C19.8135 20.3887 26.5041 20.6892 32.3382 15.8164Z" stroke="#3375BB" stroke-width="6.06304" stroke-miterlimit="10" stroke-linecap="round" stroke-linejoin="round"/>
</g>
<defs>
<clipPath id="clip0_13_3598">
<rect width="248.696" height="65" fill="white"/>
</clipPath>
</defs>
</svg>
