<svg width="23" height="20" viewBox="0 0 23 20" fill="none" xmlns="http://www.w3.org/2000/svg">
<path d="M22.4 16V18C22.4 19.1032 21.5024 20 20.4 20H3.2C1.4352 20 0 18.5648 0 16.8C0 16.8 0 3.212 0 3.2C0 1.4352 1.4352 0 3.2 0H18C18.6632 0 19.2 0.5376 19.2 1.2C19.2 1.8624 18.6632 2.4 18 2.4H3.2C2.7592 2.4 2.4 2.7584 2.4 3.2C2.4 3.6416 2.7592 4 3.2 4H20.4C21.5024 4 22.4 4.8968 22.4 6V8H18.4C16.1944 8 14.4 9.7944 14.4 12C14.4 14.2056 16.1944 16 18.4 16H22.4Z" fill="white"/>
<path d="M22.4 9.59961V14.3996H18.4C17.0744 14.3996 16 13.3252 16 11.9996C16 10.674 17.0744 9.59961 18.4 9.59961H22.4Z" fill="white"/>
</svg>
